<svg width="35" height="35" viewBox="0 0 35 35" fill="none" xmlns="http://www.w3.org/2000/svg">
<path fill-rule="evenodd" clip-rule="evenodd" d="M29.4564 4.5C30.1708 4.5 30.75 5.08763 30.75 5.8125C30.75 6.53737 30.1708 7.125 29.4564 7.125H28.8453C28.262 7.125 27.7508 7.52114 27.5973 8.09215L27.0588 10.0953L24.2821 20.4257V22.875C24.2821 23.7852 23.9776 24.6234 23.4665 25.2903C23.9739 25.8696 24.2821 26.6327 24.2821 27.4688C24.2821 29.2809 22.8342 30.75 21.0481 30.75C19.262 30.75 17.8141 29.2809 17.8141 27.4688C17.8141 27.244 17.8364 27.0246 17.8788 26.8125H13.8687C13.9111 27.0246 13.9333 27.244 13.9333 27.4688C13.9333 29.2809 12.4854 30.75 10.6994 30.75C8.91332 30.75 7.4654 29.2809 7.4654 27.4688C7.4654 27.0376 7.54742 26.6259 7.69631 26.2486C7.55078 26.0363 7.4654 25.7782 7.4654 25.5C7.4654 24.7751 8.04454 24.1875 8.75899 24.1875H10.6994H20.4013C21.1157 24.1875 21.6949 23.5999 21.6949 22.875V21.5625H8.45371C7.28676 21.5625 6.26431 20.77 5.95747 19.6276L3.84245 11.7527C3.39409 10.0829 4.63296 8.4375 6.33869 8.4375H24.8228L25.1013 7.40148C25.5618 5.68843 27.0953 4.5 28.8453 4.5H29.4564ZM10.6994 26.8125C11.0565 26.8125 11.3462 27.1064 11.3462 27.4688C11.3462 27.8311 11.0565 28.125 10.6994 28.125C10.3422 28.125 10.0526 27.8311 10.0526 27.4688C10.0526 27.1064 10.3422 26.8125 10.6994 26.8125ZM8.45371 18.9375H22.0004L24.1172 11.0625H6.33869L8.45371 18.9375ZM21.0481 26.8125C21.4053 26.8125 21.6949 27.1064 21.6949 27.4688C21.6949 27.8311 21.4053 28.125 21.0481 28.125C20.6909 28.125 20.4013 27.8311 20.4013 27.4688C20.4013 27.1064 20.6909 26.8125 21.0481 26.8125Z" fill="#D2E0D9"/>
</svg>
