<svg width="20" height="20" viewBox="0 0 20 20" fill="none" xmlns="http://www.w3.org/2000/svg">
<path fill-rule="evenodd" clip-rule="evenodd" d="M0 4C0 1.79086 1.79086 0 4 0H16C18.2091 0 20 1.79086 20 4V16C20 18.2091 18.2091 20 16 20H4C1.79086 20 0 18.2091 0 16V4ZM4 2C2.89543 2 2 2.89543 2 4V16C2 17.1046 2.89543 18 4 18H10V11H9C8.4477 11 8 10.5523 8 10C8 9.4477 8.4477 9 9 9H10V7.5C10 5.567 11.567 4 13.5 4H14.1C14.6523 4 15.1 4.44772 15.1 5C15.1 5.55228 14.6523 6 14.1 6H13.5C12.6716 6 12 6.67157 12 7.5V9H14.1C14.6523 9 15.1 9.4477 15.1 10C15.1 10.5523 14.6523 11 14.1 11H12V18H16C17.1046 18 18 17.1046 18 16V4C18 2.89543 17.1046 2 16 2H4Z" fill="#D2E0D9"/>
</svg>
