<svg width="90" height="91" viewBox="0 0 90 91" fill="none" xmlns="http://www.w3.org/2000/svg">
<path d="M15 19.25H60" stroke="#103320" stroke-width="7.5" stroke-linecap="round"/>
<path d="M15 45.5H37.5" stroke="#103320" stroke-width="7.5" stroke-linecap="round"/>
<path d="M52.5 45.5H75" stroke="#103320" stroke-width="7.5" stroke-linecap="round"/>
<path d="M30 71.75H75" stroke="#103320" stroke-width="7.5" stroke-linecap="round"/>
<path d="M67.5 26.75C71.6421 26.75 75 23.3921 75 19.25C75 15.1079 71.6421 11.75 67.5 11.75C63.3579 11.75 60 15.1079 60 19.25C60 23.3921 63.3579 26.75 67.5 26.75Z" stroke="#103320" stroke-width="7.5" stroke-linecap="round"/>
<path d="M45 53C49.1421 53 52.5 49.6421 52.5 45.5C52.5 41.3579 49.1421 38 45 38C40.8579 38 37.5 41.3579 37.5 45.5C37.5 49.6421 40.8579 53 45 53Z" stroke="#103320" stroke-width="7.5" stroke-linecap="round"/>
<path d="M22.5 79.25C26.6421 79.25 30 75.8921 30 71.75C30 67.6079 26.6421 64.25 22.5 64.25C18.3579 64.25 15 67.6079 15 71.75C15 75.8921 18.3579 79.25 22.5 79.25Z" stroke="#103320" stroke-width="7.5" stroke-linecap="round"/>
</svg>
