<svg width="20" height="28" viewBox="0 0 20 28" fill="none" xmlns="http://www.w3.org/2000/svg">
<path d="M10.095 0.666992C4.62917 0.666992 0 5.32283 0 10.837C0 16.612 5.36583 22.5178 8.975 26.6687C8.98917 26.6853 9.5725 27.3328 10.2908 27.3328H10.3542C11.0733 27.3328 11.6525 26.6853 11.6667 26.6687C15.0533 22.7753 20 16.3545 20 10.837C20 5.32199 16.3892 0.666992 10.095 0.666992ZM10.4292 25.5503C10.4 25.5795 10.3575 25.612 10.32 25.6395C10.2817 25.6128 10.24 25.5795 10.2092 25.5503L9.77333 25.0487C6.35167 21.1237 1.66583 15.7478 1.66583 10.8362C1.66583 6.22616 5.52583 2.33199 10.0942 2.33199C15.785 2.33199 18.3325 6.60283 18.3325 10.8362C18.3325 14.5645 15.6733 19.5162 10.4292 25.5503ZM10.0292 5.71283C7.26833 5.71283 5.02917 7.95116 5.02917 10.7128C5.02917 13.4745 7.26833 15.7128 10.0292 15.7128C12.79 15.7128 15.0292 13.4737 15.0292 10.7128C15.0292 7.95199 12.7908 5.71283 10.0292 5.71283ZM10.0292 14.0462C8.19083 14.0462 6.6575 12.5145 6.6575 10.6762C6.6575 8.83783 8.1525 7.34283 9.99083 7.34283C11.83 7.34283 13.3242 8.83783 13.3242 10.6762C13.325 12.5145 11.8683 14.0462 10.0292 14.0462Z" fill="#D2E0D9"/>
</svg>
