<svg width="22" height="22" viewBox="0 0 22 22" fill="none" xmlns="http://www.w3.org/2000/svg">
<path d="M8.22475 2.39736C7.88729 1.55369 7.07019 1.00049 6.16153 1.00049H3.10521C1.94253 1.00049 1 1.9428 1 3.10546C1 12.9882 9.01178 20.9999 18.8945 20.9999C20.0571 20.9999 20.9994 20.0573 20.9994 18.8947L21 15.8379C21 14.9291 20.4469 14.1122 19.6033 13.7747L16.6739 12.6034C15.9161 12.3003 15.0533 12.4367 14.4262 12.9593L13.6702 13.5898C12.7873 14.3256 11.4882 14.267 10.6755 13.4544L8.5467 11.3236C7.73402 10.5109 7.67396 9.21281 8.40974 8.32993L9.04011 7.57397C9.56265 6.94693 9.70031 6.08386 9.39721 5.32602L8.22475 2.39736Z" stroke="#D2E0D9" stroke-linecap="round" stroke-linejoin="round"/>
</svg>
